<svg width="227" height="75" viewBox="0 0 227 75" fill="none" xmlns="http://www.w3.org/2000/svg">
<g clip-path="url(#clip0_173_15)">
<path d="M0 5.27344C0 2.36099 2.36101 0 5.27344 0H57.8613C60.7737 0 63.1348 2.36099 63.1348 5.27344V69.7266C63.1348 72.639 60.7737 75 57.8613 75H5.27344C2.36099 75 0 72.639 0 69.7266V5.27344Z" fill="#006FBB"/>
<path d="M54.4922 17.4316H4.83398V20.5078H54.4922V17.4316Z" fill="#004676"/>
<path d="M29.7363 8.93555H4.83398V12.0117H29.7363V8.93555Z" fill="#004676"/>
<path d="M54.4922 25.9277H4.83398V29.0039H54.4922V25.9277Z" fill="#004676"/>
<path d="M54.4922 42.9199H4.83398V45.9961H54.4922V42.9199Z" fill="#004676"/>
<path d="M54.4922 51.416H4.83398V54.4922H54.4922V51.416Z" fill="#004676"/>
<path d="M21.9727 59.9121H4.83398V62.9883H21.9727V59.9121Z" fill="#004676"/>
<path d="M54.4922 34.4238H4.83398V37.5H54.4922V34.4238Z" fill="#004676"/>
<path d="M38.9196 10.3531L46.2451 13.3377L28.5584 56.7479L21.2329 53.7633L38.9196 10.3531Z" fill="#F0F0F0"/>
<path d="M22.1884 62.967C21.9138 63.2341 21.4528 63.0463 21.4428 62.6634L21.2158 53.9071C21.2076 53.5903 21.5273 53.3692 21.8209 53.4887L28.3296 56.1405C28.6232 56.2602 28.6975 56.6418 28.4701 56.8627L22.1884 62.967Z" fill="#F0F0F0"/>
<path d="M46.1439 13.592L38.8184 10.6073L40.0896 7.48723C40.4559 6.58818 41.4816 6.1563 42.3807 6.5226L46.4505 8.18073C47.3495 8.54703 47.7813 9.5728 47.4151 10.4719L46.1439 13.592Z" fill="#F0F0F0"/>
</g>
<path d="M87.666 23.3376H79.8808L78.2694 27H76.1138L82.7479 12.3505H84.8198L91.4748 27H89.2774L87.666 23.3376ZM86.9335 21.6634L83.7734 14.4852L80.6133 21.6634H86.9335ZM97.9294 27.1674C96.8272 27.1674 95.7599 27 94.7275 26.6652C93.709 26.3164 92.9068 25.8699 92.3208 25.3258L93.0951 23.6934C93.6532 24.1957 94.3647 24.6073 95.2297 24.9281C96.1087 25.2351 97.0086 25.3886 97.9294 25.3886C99.1432 25.3886 100.05 25.1863 100.65 24.7817C101.25 24.3631 101.55 23.812 101.55 23.1284C101.55 22.6261 101.383 22.2215 101.048 21.9145C100.727 21.5937 100.322 21.3495 99.8339 21.1821C99.3595 21.0147 98.6828 20.8263 97.8039 20.617C96.7017 20.3519 95.8087 20.0869 95.1251 19.8218C94.4554 19.5567 93.8764 19.1521 93.3881 18.608C92.9137 18.0499 92.6766 17.3035 92.6766 16.3687C92.6766 15.5874 92.8789 14.8828 93.2835 14.255C93.702 13.6271 94.3298 13.1249 95.167 12.7482C96.0041 12.3715 97.0435 12.1831 98.2852 12.1831C99.1502 12.1831 100.001 12.2947 100.838 12.518C101.676 12.7412 102.394 13.0621 102.994 13.4806L102.303 15.1549C101.689 14.7642 101.034 14.4712 100.336 14.2759C99.6385 14.0666 98.9549 13.962 98.2852 13.962C97.0993 13.962 96.2064 14.1782 95.6064 14.6107C95.0205 15.0433 94.7275 15.6013 94.7275 16.285C94.7275 16.7872 94.8949 17.1988 95.2297 17.5197C95.5646 17.8266 95.9762 18.0708 96.4645 18.2522C96.9668 18.4196 97.6434 18.601 98.4945 18.7963C99.5967 19.0614 100.483 19.3265 101.152 19.5916C101.822 19.8566 102.394 20.2612 102.868 20.8054C103.357 21.3495 103.601 22.082 103.601 23.0028C103.601 23.7701 103.392 24.4747 102.973 25.1165C102.554 25.7443 101.92 26.2466 101.069 26.6233C100.218 26.986 99.1711 27.1674 97.9294 27.1674ZM110.928 27.1674C109.825 27.1674 108.758 27 107.726 26.6652C106.707 26.3164 105.905 25.8699 105.319 25.3258L106.093 23.6934C106.651 24.1957 107.363 24.6073 108.228 24.9281C109.107 25.2351 110.007 25.3886 110.928 25.3886C112.141 25.3886 113.048 25.1863 113.648 24.7817C114.248 24.3631 114.548 23.812 114.548 23.1284C114.548 22.6261 114.381 22.2215 114.046 21.9145C113.725 21.5937 113.32 21.3495 112.832 21.1821C112.358 21.0147 111.681 20.8263 110.802 20.617C109.7 20.3519 108.807 20.0869 108.123 19.8218C107.454 19.5567 106.875 19.1521 106.386 18.608C105.912 18.0499 105.675 17.3035 105.675 16.3687C105.675 15.5874 105.877 14.8828 106.282 14.255C106.7 13.6271 107.328 13.1249 108.165 12.7482C109.002 12.3715 110.042 12.1831 111.283 12.1831C112.148 12.1831 112.999 12.2947 113.837 12.518C114.674 12.7412 115.392 13.0621 115.992 13.4806L115.301 15.1549C114.688 14.7642 114.032 14.4712 113.334 14.2759C112.637 14.0666 111.953 13.962 111.283 13.962C110.097 13.962 109.204 14.1782 108.605 14.6107C108.019 15.0433 107.726 15.6013 107.726 16.285C107.726 16.7872 107.893 17.1988 108.228 17.5197C108.563 17.8266 108.974 18.0708 109.463 18.2522C109.965 18.4196 110.642 18.601 111.493 18.7963C112.595 19.0614 113.481 19.3265 114.15 19.5916C114.82 19.8566 115.392 20.2612 115.867 20.8054C116.355 21.3495 116.599 22.082 116.599 23.0028C116.599 23.7701 116.39 24.4747 115.971 25.1165C115.553 25.7443 114.918 26.2466 114.067 26.6233C113.216 26.986 112.169 27.1674 110.928 27.1674ZM119.656 12.3505H121.749V27H119.656V12.3505ZM136.285 19.5916H138.294V25.3048C137.569 25.9048 136.724 26.3652 135.762 26.6861C134.799 27.007 133.795 27.1674 132.748 27.1674C131.269 27.1674 129.937 26.8465 128.751 26.2047C127.565 25.549 126.63 24.6561 125.947 23.526C125.277 22.3819 124.942 21.0984 124.942 19.6753C124.942 18.2522 125.277 16.9686 125.947 15.8246C126.63 14.6805 127.565 13.7876 128.751 13.1458C129.951 12.504 131.297 12.1831 132.79 12.1831C133.962 12.1831 135.022 12.3784 135.971 12.7691C136.934 13.1458 137.75 13.7039 138.42 14.4433L137.122 15.7408C135.95 14.6107 134.534 14.0457 132.874 14.0457C131.758 14.0457 130.753 14.2899 129.86 14.7782C128.981 15.2525 128.291 15.9222 127.788 16.7872C127.286 17.6383 127.035 18.601 127.035 19.6753C127.035 20.7356 127.286 21.6983 127.788 22.5633C128.291 23.4144 128.981 24.0841 129.86 24.5724C130.753 25.0607 131.751 25.3048 132.853 25.3048C134.164 25.3048 135.308 24.9909 136.285 24.3631V19.5916ZM154.899 12.3505V27H153.183L144.394 16.0757V27H142.301V12.3505H144.017L152.807 23.2749V12.3505H154.899ZM172.866 27L172.846 16.3268L167.551 25.2211H166.588L161.293 16.3896V27H159.284V12.3505H161L167.111 22.647L173.139 12.3505H174.855L174.876 27H172.866ZM189.903 25.1793V27H179.272V12.3505H189.61V14.1713H181.365V18.6707H188.71V20.4496H181.365V25.1793H189.903ZM205.891 12.3505V27H204.174L195.385 16.0757V27H193.292V12.3505H195.008L203.798 23.2749V12.3505H205.891ZM213.184 14.1713H208.162V12.3505H220.279V14.1713H215.256V27H213.184V14.1713ZM91.9143 53L91.8934 42.3268L86.5987 51.2211H85.636L80.3413 42.3896V53H78.3322V38.3505H80.0483L86.1592 48.647L92.1864 38.3505H93.9025L93.9234 53H91.9143ZM107.654 49.3376H99.8685L98.2571 53H96.1015L102.736 38.3505H104.807L111.463 53H109.265L107.654 49.3376ZM106.921 47.6634L103.761 40.4852L100.601 47.6634H106.921ZM126.246 38.3505V53H124.53L115.741 42.0757V53H113.648V38.3505H115.364L124.154 49.2749V38.3505H126.246ZM139.965 49.3376H132.18L130.568 53H128.413L135.047 38.3505H137.119L143.774 53H141.576L139.965 49.3376ZM139.233 47.6634L136.072 40.4852L132.912 47.6634H139.233ZM155.905 45.5916H157.914V51.3048C157.188 51.9048 156.344 52.3652 155.382 52.6861C154.419 53.007 153.414 53.1674 152.368 53.1674C150.889 53.1674 149.557 52.8465 148.371 52.2047C147.185 51.549 146.25 50.6561 145.566 49.526C144.897 48.3819 144.562 47.0984 144.562 45.6753C144.562 44.2522 144.897 42.9686 145.566 41.8246C146.25 40.6805 147.185 39.7876 148.371 39.1458C149.571 38.504 150.917 38.1831 152.41 38.1831C153.582 38.1831 154.642 38.3784 155.591 38.7691C156.554 39.1458 157.37 39.7039 158.039 40.4433L156.742 41.7408C155.57 40.6107 154.154 40.0457 152.494 40.0457C151.377 40.0457 150.373 40.2899 149.48 40.7782C148.601 41.2525 147.91 41.9222 147.408 42.7872C146.906 43.6383 146.655 44.601 146.655 45.6753C146.655 46.7356 146.906 47.6983 147.408 48.5633C147.91 49.4144 148.601 50.0841 149.48 50.5724C150.373 51.0607 151.37 51.3048 152.473 51.3048C153.784 51.3048 154.928 50.9909 155.905 50.3631V45.5916ZM172.552 51.1793V53H161.921V38.3505H172.259V40.1713H164.014V44.6707H171.359V46.4496H164.014V51.1793H172.552ZM185.735 53L182.575 48.5005C182.184 48.5284 181.877 48.5424 181.654 48.5424H178.034V53H175.941V38.3505H181.654C183.551 38.3505 185.044 38.804 186.133 39.7108C187.221 40.6177 187.765 41.8664 187.765 43.4569C187.765 44.587 187.486 45.5497 186.928 46.345C186.37 47.1402 185.574 47.7192 184.542 48.082L188.016 53H185.735ZM181.591 46.7635C182.917 46.7635 183.928 46.4775 184.626 45.9055C185.323 45.3335 185.672 44.5173 185.672 43.4569C185.672 42.3966 185.323 41.5874 184.626 41.0293C183.928 40.4573 182.917 40.1713 181.591 40.1713H178.034V46.7635H181.591Z" fill="#004676"/>
<defs>
<clipPath id="clip0_173_15">
<rect width="63.1348" height="75" fill="white"/>
</clipPath>
</defs>
</svg>
