<svg width="227" height="75" viewBox="0 0 227 75" fill="none" xmlns="http://www.w3.org/2000/svg">
<g clip-path="url(#clip0_173_15)">
<path d="M0 5.27344C0 2.36099 2.36101 0 5.27344 0H57.8613C60.7737 0 63.1348 2.36099 63.1348 5.27344V69.7266C63.1348 72.639 60.7737 75 57.8613 75H5.27344C2.36099 75 0 72.639 0 69.7266V5.27344Z" fill="#006FBB"/>
<path d="M54.4922 17.4316H4.83398V20.5078H54.4922V17.4316Z" fill="#004676"/>
<path d="M29.7363 8.93555H4.83398V12.0117H29.7363V8.93555Z" fill="#004676"/>
<path d="M54.4922 25.9277H4.83398V29.0039H54.4922V25.9277Z" fill="#004676"/>
<path d="M54.4922 42.9199H4.83398V45.9961H54.4922V42.9199Z" fill="#004676"/>
<path d="M54.4922 51.416H4.83398V54.4922H54.4922V51.416Z" fill="#004676"/>
<path d="M21.9727 59.9121H4.83398V62.9883H21.9727V59.9121Z" fill="#004676"/>
<path d="M54.4922 34.4238H4.83398V37.5H54.4922V34.4238Z" fill="#004676"/>
<path d="M38.9196 10.3531L46.2451 13.3377L28.5584 56.7479L21.2329 53.7633L38.9196 10.3531Z" fill="#F0F0F0"/>
<path d="M22.1884 62.967C21.9138 63.2341 21.4528 63.0463 21.4428 62.6634L21.2158 53.9071C21.2076 53.5903 21.5273 53.3692 21.8209 53.4887L28.3296 56.1405C28.6232 56.2602 28.6975 56.6418 28.4701 56.8627L22.1884 62.967Z" fill="#F0F0F0"/>
<path d="M46.1439 13.592L38.8184 10.6073L40.0896 7.48723C40.4559 6.58818 41.4816 6.1563 42.3807 6.5226L46.4505 8.18073C47.3495 8.54703 47.7813 9.5728 47.4151 10.4719L46.1439 13.592Z" fill="#F0F0F0"/>
</g>
<path d="M87.6032 23.6097H80.2785L78.8345 27H76.0301L82.6224 12.3505H85.3011L91.9143 27H89.0681L87.6032 23.6097ZM86.7033 21.4751L83.9408 15.0712L81.1993 21.4751H86.7033ZM98.3187 27.2093C97.1886 27.2093 96.0934 27.0488 95.0331 26.7279C93.9867 26.407 93.1565 25.9815 92.5426 25.4513L93.4844 23.3376C94.0843 23.812 94.8168 24.2027 95.6818 24.5096C96.5608 24.8026 97.4398 24.9491 98.3187 24.9491C99.407 24.9491 100.216 24.7747 100.746 24.4259C101.29 24.0771 101.563 23.6167 101.563 23.0446C101.563 22.6261 101.409 22.2843 101.102 22.0192C100.809 21.7401 100.432 21.5239 99.972 21.3704C99.5116 21.217 98.8838 21.0426 98.0885 20.8472C96.9724 20.5821 96.0655 20.3171 95.3679 20.052C94.6843 19.7869 94.0913 19.3753 93.589 18.8172C93.1007 18.2452 92.8566 17.4779 92.8566 16.5152C92.8566 15.706 93.0728 14.9735 93.5053 14.3178C93.9518 13.6481 94.6145 13.1179 95.4935 12.7272C96.3864 12.3366 97.4746 12.1413 98.7582 12.1413C99.6511 12.1413 100.53 12.2529 101.395 12.4761C102.26 12.6993 103.007 13.0202 103.634 13.4388L102.776 15.5525C102.135 15.1758 101.465 14.8898 100.767 14.6945C100.07 14.4991 99.393 14.4015 98.7373 14.4015C97.663 14.4015 96.8607 14.5828 96.3306 14.9456C95.8144 15.3083 95.5563 15.7897 95.5563 16.3896C95.5563 16.8082 95.7027 17.15 95.9957 17.4151C96.3027 17.6802 96.6864 17.8894 97.1468 18.0429C97.6072 18.1964 98.235 18.3708 99.0303 18.5661C100.119 18.8172 101.011 19.0823 101.709 19.3614C102.407 19.6264 103 20.038 103.488 20.5961C103.99 21.1542 104.241 21.9076 104.241 22.8563C104.241 23.6655 104.018 24.398 103.572 25.0537C103.139 25.7095 102.476 26.2326 101.583 26.6233C100.691 27.014 99.6023 27.2093 98.3187 27.2093ZM111.48 27.2093C110.35 27.2093 109.255 27.0488 108.195 26.7279C107.148 26.407 106.318 25.9815 105.704 25.4513L106.646 23.3376C107.246 23.812 107.978 24.2027 108.843 24.5096C109.722 24.8026 110.601 24.9491 111.48 24.9491C112.569 24.9491 113.378 24.7747 113.908 24.4259C114.452 24.0771 114.724 23.6167 114.724 23.0446C114.724 22.6261 114.571 22.2843 114.264 22.0192C113.971 21.7401 113.594 21.5239 113.134 21.3704C112.673 21.217 112.045 21.0426 111.25 20.8472C110.134 20.5821 109.227 20.3171 108.53 20.052C107.846 19.7869 107.253 19.3753 106.751 18.8172C106.262 18.2452 106.018 17.4779 106.018 16.5152C106.018 15.706 106.234 14.9735 106.667 14.3178C107.113 13.6481 107.776 13.1179 108.655 12.7272C109.548 12.3366 110.636 12.1413 111.92 12.1413C112.813 12.1413 113.692 12.2529 114.557 12.4761C115.422 12.6993 116.168 13.0202 116.796 13.4388L115.938 15.5525C115.296 15.1758 114.626 14.8898 113.929 14.6945C113.231 14.4991 112.555 14.4015 111.899 14.4015C110.825 14.4015 110.022 14.5828 109.492 14.9456C108.976 15.3083 108.718 15.7897 108.718 16.3896C108.718 16.8082 108.864 17.15 109.157 17.4151C109.464 17.6802 109.848 17.8894 110.308 18.0429C110.769 18.1964 111.397 18.3708 112.192 18.5661C113.28 18.8172 114.173 19.0823 114.871 19.3614C115.568 19.6264 116.161 20.038 116.65 20.5961C117.152 21.1542 117.403 21.9076 117.403 22.8563C117.403 23.6655 117.18 24.398 116.733 25.0537C116.301 25.7095 115.638 26.2326 114.745 26.6233C113.852 27.014 112.764 27.2093 111.48 27.2093ZM120.101 12.3505H122.821V27H120.101V12.3505ZM136.787 19.5078H139.361V25.3467C138.608 25.9466 137.729 26.407 136.724 26.7279C135.72 27.0488 134.687 27.2093 133.627 27.2093C132.134 27.2093 130.788 26.8884 129.588 26.2466C128.388 25.5909 127.446 24.691 126.763 23.5469C126.079 22.4029 125.737 21.1123 125.737 19.6753C125.737 18.2382 126.079 16.9477 126.763 15.8036C127.446 14.6596 128.388 13.7667 129.588 13.1249C130.802 12.4691 132.162 12.1413 133.669 12.1413C134.897 12.1413 136.013 12.3436 137.017 12.7482C138.022 13.1528 138.866 13.7457 139.55 14.527L137.834 16.2013C136.717 15.0851 135.371 14.527 133.794 14.527C132.762 14.527 131.841 14.7433 131.032 15.1758C130.237 15.6083 129.609 16.2152 129.148 16.9965C128.702 17.7778 128.479 18.6707 128.479 19.6753C128.479 20.6519 128.702 21.5309 129.148 22.3122C129.609 23.0935 130.237 23.7074 131.032 24.1538C131.841 24.6003 132.755 24.8235 133.774 24.8235C134.918 24.8235 135.922 24.5724 136.787 24.0701V19.5078ZM155.967 12.3505V27H153.727L145.649 17.0802V27H142.95V12.3505H145.189L153.267 22.2703V12.3505H155.967ZM173.349 27L173.328 17.2895L168.514 25.3258H167.3L162.487 17.4151V27H159.892V12.3505H162.131L167.949 22.061L173.663 12.3505H175.902L175.923 27H173.349ZM190.867 24.7189V27H179.88V12.3505H190.574V14.6317H182.6V18.4405H189.674V20.6798H182.6V24.7189H190.867ZM206.917 12.3505V27H204.678L196.599 17.0802V27H193.9V12.3505H196.139L204.217 22.2703V12.3505H206.917ZM213.814 14.6526H208.959V12.3505H221.39V14.6526H216.535V27H213.814V14.6526ZM91.5586 53L91.5376 43.2895L86.7242 51.3258H85.5104L80.697 43.4151V53H78.102V38.3505H80.3413L86.1592 48.061L91.8725 38.3505H94.1117L94.1327 53H91.5586ZM107.591 49.6097H100.266L98.8221 53H96.0178L102.61 38.3505H105.289L111.902 53H109.056L107.591 49.6097ZM106.691 47.4751L103.929 41.0712L101.187 47.4751H106.691ZM126.782 38.3505V53H124.543L116.465 43.0802V53H113.765V38.3505H116.004L124.082 48.2703V38.3505H126.782ZM140.209 49.6097H132.884L131.44 53H128.636L135.228 38.3505H137.907L144.52 53H141.674L140.209 49.6097ZM139.309 47.4751L136.546 41.0712L133.805 47.4751H139.309ZM156.182 45.5078H158.756V51.3467C158.003 51.9466 157.124 52.407 156.119 52.7279C155.115 53.0488 154.082 53.2093 153.022 53.2093C151.529 53.2093 150.183 52.8884 148.983 52.2466C147.783 51.5909 146.841 50.691 146.158 49.5469C145.474 48.4029 145.132 47.1123 145.132 45.6753C145.132 44.2382 145.474 42.9477 146.158 41.8036C146.841 40.6596 147.783 39.7667 148.983 39.1249C150.197 38.4691 151.557 38.1413 153.064 38.1413C154.292 38.1413 155.408 38.3436 156.412 38.7482C157.417 39.1528 158.261 39.7457 158.945 40.527L157.229 42.2013C156.112 41.0851 154.766 40.527 153.189 40.527C152.157 40.527 151.236 40.7433 150.427 41.1758C149.632 41.6083 149.004 42.2152 148.543 42.9965C148.097 43.7778 147.874 44.6707 147.874 45.6753C147.874 46.6519 148.097 47.5309 148.543 48.3122C149.004 49.0935 149.632 49.7074 150.427 50.1538C151.236 50.6003 152.15 50.8235 153.169 50.8235C154.313 50.8235 155.317 50.5724 156.182 50.0701V45.5078ZM173.332 50.7189V53H162.345V38.3505H173.039V40.6317H165.065V44.4405H172.139V46.6798H165.065V50.7189H173.332ZM185.949 53L182.957 48.7098C182.831 48.7238 182.643 48.7307 182.392 48.7307H179.085V53H176.365V38.3505H182.392C183.661 38.3505 184.764 38.5598 185.698 38.9784C186.647 39.3969 187.373 39.9969 187.875 40.7782C188.377 41.5595 188.628 42.4873 188.628 43.5616C188.628 44.6638 188.356 45.6125 187.812 46.4077C187.282 47.203 186.515 47.796 185.51 48.1866L188.879 53H185.949ZM185.887 43.5616C185.887 42.6268 185.58 41.9083 184.966 41.406C184.352 40.9037 183.452 40.6526 182.266 40.6526H179.085V46.4915H182.266C183.452 46.4915 184.352 46.2403 184.966 45.7381C185.58 45.2218 185.887 44.4963 185.887 43.5616Z" fill="white"/>
<defs>
<clipPath id="clip0_173_15">
<rect width="63.1348" height="75" fill="white"/>
</clipPath>
</defs>
</svg>
