<svg width="884" height="746" viewBox="0 0 884 746" fill="none" xmlns="http://www.w3.org/2000/svg">
<ellipse cx="442" cy="681.5" rx="442" ry="33.5" fill="#222222" fill-opacity="0.75"/>
<g clip-path="url(#clip0_543_97)">
<path d="M735.284 463.027C723.152 463.027 713.315 453.19 713.315 441.058C713.315 428.924 723.152 419.089 735.284 419.089C772.105 419.089 802.062 389.131 802.062 352.309C802.062 315.489 772.107 285.531 735.284 285.531C674.234 285.531 624.566 235.863 624.566 174.813C624.566 113.763 674.234 64.0953 735.284 64.0953C747.417 64.0953 757.253 73.9323 757.253 86.0644C757.253 98.1986 747.417 108.034 735.284 108.034C698.462 108.034 668.505 137.991 668.505 174.811C668.505 211.632 698.46 241.591 735.284 241.591C796.332 241.591 846 291.259 846 352.307C846 413.357 796.332 463.027 735.284 463.027Z" fill="#0071BC"/>
<path d="M224.887 469.529C198.295 469.529 176.741 491.084 176.741 517.672V617.718H132.165C114.444 617.718 100.072 632.086 100.072 649.811V667.42C100.072 675.421 106.556 681.907 114.56 681.907H240.933C258.656 681.907 273.026 667.539 273.026 649.811V517.672C273.028 491.08 251.473 469.529 224.887 469.529Z" fill="#005F9E"/>
<path d="M621.767 316.159H206.079V527.785C206.079 607.388 270.61 671.917 350.211 671.917H621.767V670.892C719.727 670.892 799.135 591.482 799.135 493.526C799.133 395.568 719.725 316.159 621.767 316.159Z" fill="#0071BC"/>
<path d="M434.625 316.346V420.639C434.625 440.378 450.628 456.381 470.368 456.381C490.109 456.381 506.112 440.378 506.112 420.639V316.346H434.625Z" fill="#004676"/>
<path d="M558.972 316.346V420.639C558.972 440.378 574.977 456.381 594.714 456.381C614.457 456.381 630.458 440.378 630.458 420.639V316.346H558.972Z" fill="#004676"/>
<path d="M639.34 435.995C571.437 435.995 516.386 491.042 516.386 558.949C516.386 580.235 521.798 600.255 531.317 617.716H518.353C500.632 617.716 486.259 632.084 486.259 649.809V667.418C486.259 675.419 492.743 681.905 500.748 681.905H639.34C707.245 681.905 762.296 626.858 762.296 558.949C762.296 491.042 707.245 435.995 639.34 435.995Z" fill="#007ED2"/>
<path d="M386.917 469.529C360.325 469.529 338.774 491.084 338.774 517.672V617.718H294.198C276.474 617.718 262.104 632.086 262.104 649.811V667.42C262.104 675.421 268.588 681.907 276.59 681.907H402.963C420.686 681.907 435.056 667.539 435.056 649.811V517.672C435.058 491.08 413.503 469.529 386.917 469.529Z" fill="#007ED2"/>
<path d="M451.398 171.962V91.5638C451.398 82.3037 443.895 74.8006 434.635 74.8006C430.222 74.8006 426.206 76.5046 423.212 79.2931L359.363 143.142C335.419 127.151 306.654 117.813 275.698 117.813C244.742 117.813 215.975 127.151 192.031 143.144L128.182 79.2931C125.188 76.5046 121.174 74.8006 116.763 74.8006C107.505 74.8006 100 82.3037 100 91.5638V293.872C100 390.909 178.663 481.415 275.7 481.415C372.735 481.415 451.4 390.909 451.4 293.872L451.398 171.962Z" fill="#0071BC"/>
<path d="M275.744 118C263.424 118 251.464 119.512 240 122.297V171.628C240 191.368 256.005 207.371 275.744 207.371C295.483 207.371 311.486 191.368 311.486 171.628V122.297C300.023 119.512 288.064 118 275.744 118Z" fill="#004676"/>
<path d="M310.884 290.184H241.336C220.193 290.184 203.052 307.327 203.052 328.47C203.052 349.616 220.193 366.756 241.336 366.756C256.783 366.756 270.056 357.592 276.112 344.422C282.166 357.592 295.44 366.756 310.886 366.756C332.03 366.756 349.172 349.616 349.172 328.47C349.17 307.325 332.028 290.184 310.884 290.184Z" fill="white"/>
<path d="M174.96 274.077C184.643 274.077 192.492 266.228 192.492 256.546C192.492 246.863 184.643 239.014 174.96 239.014C165.278 239.014 157.429 246.863 157.429 256.546C157.429 266.228 165.278 274.077 174.96 274.077Z" fill="#333E48"/>
<path d="M377.261 274.073C386.942 274.073 394.79 266.225 394.79 256.544C394.79 246.862 386.942 239.014 377.261 239.014C367.579 239.014 359.731 246.862 359.731 256.544C359.731 266.225 367.579 274.073 377.261 274.073Z" fill="#333E48"/>
<path d="M297.81 315.69C286.815 327.09 268.498 327.416 257.104 316.416L244.397 304.145C233.003 293.142 236.637 284.141 252.477 284.141H299.436C315.274 284.141 319.236 293.47 308.242 304.87L297.81 315.69Z" fill="#333E48"/>
<path d="M226.263 334.151L157.09 350.35" stroke="#333E48" stroke-width="6.11499" stroke-miterlimit="10" stroke-linecap="round" stroke-linejoin="round"/>
<path d="M233.916 349.392L176.855 383.652" stroke="#333E48" stroke-width="6.11499" stroke-miterlimit="10" stroke-linecap="round" stroke-linejoin="round"/>
<path d="M221.923 317.357L152 314.709" stroke="#333E48" stroke-width="6.11499" stroke-miterlimit="10" stroke-linecap="round" stroke-linejoin="round"/>
<path d="M325.957 334.151L395.132 350.35" stroke="#333E48" stroke-width="6.11499" stroke-miterlimit="10" stroke-linecap="round" stroke-linejoin="round"/>
<path d="M318.301 349.392L375.364 383.652" stroke="#333E48" stroke-width="6.11499" stroke-miterlimit="10" stroke-linecap="round" stroke-linejoin="round"/>
<path d="M330.294 317.357L400.219 314.709" stroke="#333E48" stroke-width="6.11499" stroke-miterlimit="10" stroke-linecap="round" stroke-linejoin="round"/>
</g>
<defs>
<clipPath id="clip0_543_97">
<rect width="746" height="746" fill="white" transform="translate(100)"/>
</clipPath>
</defs>
</svg>
