<svg width="746" height="746" viewBox="0 0 746 746" fill="none" xmlns="http://www.w3.org/2000/svg">
<g clip-path="url(#clip0_543_97)">
<path d="M635.284 463.027C623.152 463.027 613.315 453.19 613.315 441.058C613.315 428.924 623.152 419.089 635.284 419.089C672.105 419.089 702.062 389.131 702.062 352.309C702.062 315.489 672.107 285.531 635.284 285.531C574.234 285.531 524.566 235.863 524.566 174.813C524.566 113.763 574.234 64.0953 635.284 64.0953C647.417 64.0953 657.253 73.9323 657.253 86.0644C657.253 98.1986 647.417 108.034 635.284 108.034C598.462 108.034 568.505 137.991 568.505 174.811C568.505 211.632 598.46 241.591 635.284 241.591C696.332 241.591 746 291.259 746 352.307C746 413.357 696.332 463.027 635.284 463.027Z" fill="#0071BC"/>
<path d="M124.887 469.529C98.2948 469.529 76.7415 491.084 76.7415 517.672V617.718H32.1653C14.444 617.718 0.0717773 632.086 0.0717773 649.811V667.42C0.0717773 675.421 6.5557 681.907 14.5602 681.907H140.933C158.656 681.907 173.026 667.539 173.026 649.811V517.672C173.028 491.08 151.473 469.529 124.887 469.529Z" fill="#005F9E"/>
<path d="M521.767 316.159H106.079V527.785C106.079 607.388 170.61 671.917 250.211 671.917H521.767V670.892C619.727 670.892 699.135 591.482 699.135 493.526C699.133 395.568 619.725 316.159 521.767 316.159Z" fill="#0071BC"/>
<path d="M334.625 316.346V420.639C334.625 440.378 350.628 456.381 370.368 456.381C390.109 456.381 406.112 440.378 406.112 420.639V316.346H334.625Z" fill="#004676"/>
<path d="M458.972 316.346V420.639C458.972 440.378 474.977 456.381 494.714 456.381C514.457 456.381 530.458 440.378 530.458 420.639V316.346H458.972Z" fill="#004676"/>
<path d="M539.34 435.995C471.437 435.995 416.386 491.042 416.386 558.949C416.386 580.235 421.798 600.255 431.317 617.716H418.353C400.632 617.716 386.259 632.084 386.259 649.809V667.418C386.259 675.419 392.743 681.905 400.748 681.905H539.34C607.245 681.905 662.296 626.858 662.296 558.949C662.296 491.042 607.245 435.995 539.34 435.995Z" fill="#007ED2"/>
<path d="M286.917 469.529C260.325 469.529 238.774 491.084 238.774 517.672V617.718H194.198C176.474 617.718 162.104 632.086 162.104 649.811V667.42C162.104 675.421 168.588 681.907 176.59 681.907H302.963C320.686 681.907 335.056 667.539 335.056 649.811V517.672C335.058 491.08 313.503 469.529 286.917 469.529Z" fill="#007ED2"/>
<path d="M351.398 171.962V91.5638C351.398 82.3037 343.895 74.8006 334.635 74.8006C330.222 74.8006 326.206 76.5046 323.212 79.2931L259.363 143.142C235.419 127.151 206.654 117.813 175.698 117.813C144.742 117.813 115.975 127.151 92.0306 143.144L28.1819 79.2931C25.1876 76.5046 21.1742 74.8006 16.7632 74.8006C7.50513 74.8006 0 82.3037 0 91.5638V293.872C0 390.909 78.6632 481.415 175.7 481.415C272.735 481.415 351.4 390.909 351.4 293.872L351.398 171.962Z" fill="#0071BC"/>
<path d="M175.744 118C163.424 118 151.464 119.512 140 122.297V171.628C140 191.368 156.005 207.371 175.744 207.371C195.483 207.371 211.486 191.368 211.486 171.628V122.297C200.023 119.512 188.064 118 175.744 118Z" fill="#004676"/>
<path d="M210.884 290.184H141.336C120.193 290.184 103.052 307.327 103.052 328.47C103.052 349.616 120.193 366.756 141.336 366.756C156.783 366.756 170.056 357.592 176.112 344.422C182.166 357.592 195.44 366.756 210.886 366.756C232.03 366.756 249.172 349.616 249.172 328.47C249.17 307.325 232.028 290.184 210.884 290.184Z" fill="white"/>
<path d="M74.9604 274.077C84.6429 274.077 92.4921 266.228 92.4921 256.546C92.4921 246.863 84.6429 239.014 74.9604 239.014C65.2779 239.014 57.4287 246.863 57.4287 256.546C57.4287 266.228 65.2779 274.077 74.9604 274.077Z" fill="#333E48"/>
<path d="M277.261 274.073C286.942 274.073 294.79 266.225 294.79 256.544C294.79 246.862 286.942 239.014 277.261 239.014C267.579 239.014 259.731 246.862 259.731 256.544C259.731 266.225 267.579 274.073 277.261 274.073Z" fill="#333E48"/>
<path d="M197.81 315.69C186.815 327.09 168.498 327.416 157.104 316.416L144.397 304.145C133.003 293.142 136.637 284.141 152.477 284.141H199.436C215.274 284.141 219.236 293.47 208.242 304.87L197.81 315.69Z" fill="#333E48"/>
<path d="M126.263 334.151L57.0898 350.35" stroke="#333E48" stroke-width="6.11499" stroke-miterlimit="10" stroke-linecap="round" stroke-linejoin="round"/>
<path d="M133.916 349.392L76.855 383.652" stroke="#333E48" stroke-width="6.11499" stroke-miterlimit="10" stroke-linecap="round" stroke-linejoin="round"/>
<path d="M121.923 317.357L52 314.709" stroke="#333E48" stroke-width="6.11499" stroke-miterlimit="10" stroke-linecap="round" stroke-linejoin="round"/>
<path d="M225.957 334.151L295.132 350.35" stroke="#333E48" stroke-width="6.11499" stroke-miterlimit="10" stroke-linecap="round" stroke-linejoin="round"/>
<path d="M218.301 349.392L275.364 383.652" stroke="#333E48" stroke-width="6.11499" stroke-miterlimit="10" stroke-linecap="round" stroke-linejoin="round"/>
<path d="M230.294 317.357L300.219 314.709" stroke="#333E48" stroke-width="6.11499" stroke-miterlimit="10" stroke-linecap="round" stroke-linejoin="round"/>
</g>
<defs>
<clipPath id="clip0_543_97">
<rect width="746" height="746" fill="white"/>
</clipPath>
</defs>
</svg>
