<svg width="746" height="747" viewBox="0 0 746 747" fill="none" xmlns="http://www.w3.org/2000/svg">
<g clip-path="url(#clip0_542_90)">
<path d="M635.284 464.013C623.152 464.013 613.315 454.176 613.315 442.044C613.315 429.91 623.152 420.075 635.284 420.075C672.105 420.075 702.062 390.117 702.062 353.295C702.062 316.475 672.107 286.517 635.284 286.517C574.234 286.517 524.566 236.849 524.566 175.799C524.566 114.749 574.234 65.0813 635.284 65.0813C647.417 65.0813 657.253 74.9182 657.253 87.0504C657.253 99.1846 647.417 109.019 635.284 109.019C598.462 109.019 568.505 138.977 568.505 175.797C568.505 212.618 598.46 242.577 635.284 242.577C696.332 242.577 746 292.245 746 353.293C746 414.343 696.332 464.013 635.284 464.013Z" fill="#0071BC"/>
<path d="M124.887 470.515C98.2948 470.515 76.7415 492.07 76.7415 518.658V618.704H32.1653C14.444 618.704 0.0717773 633.072 0.0717773 650.797V668.406C0.0717773 676.407 6.5557 682.893 14.5602 682.893H140.933C158.656 682.893 173.026 668.525 173.026 650.797V518.658C173.028 492.066 151.473 470.515 124.887 470.515Z" fill="#005F9E"/>
<path d="M521.767 317.145H106.079V528.771C106.079 608.373 170.61 672.903 250.211 672.903H521.767V671.878C619.727 671.878 699.135 592.468 699.135 494.512C699.133 396.554 619.725 317.145 521.767 317.145Z" fill="#0071BC"/>
<path d="M334.58 317.145V421.438C334.58 441.177 350.583 457.18 370.322 457.18C390.063 457.18 406.066 441.177 406.066 421.438V317.145H334.58Z" fill="#055878"/>
<path d="M458.926 317.145V421.438C458.926 441.177 474.931 457.18 494.668 457.18C514.411 457.18 530.412 441.177 530.412 421.438V317.145H458.926Z" fill="#055878"/>
<path d="M539.34 436.981C471.437 436.981 416.386 492.028 416.386 559.935C416.386 581.221 421.798 601.241 431.317 618.702H418.353C400.632 618.702 386.259 633.07 386.259 650.795V668.404C386.259 676.405 392.743 682.891 400.748 682.891H539.34C607.245 682.891 662.296 627.844 662.296 559.935C662.296 492.028 607.245 436.981 539.34 436.981Z" fill="#0086DF"/>
<path d="M286.917 470.515C260.325 470.515 238.774 492.07 238.774 518.658V618.704H194.198C176.474 618.704 162.104 633.072 162.104 650.797V668.406C162.104 676.407 168.588 682.893 176.59 682.893H302.963C320.686 682.893 335.056 668.525 335.056 650.797V518.658C335.058 492.066 313.503 470.515 286.917 470.515Z" fill="#0086DF"/>
<path d="M351.398 172.948V92.5498C351.398 83.2897 343.895 75.7866 334.635 75.7866C330.222 75.7866 326.206 77.4906 323.212 80.279L259.363 144.128C235.419 128.137 206.654 118.799 175.698 118.799C144.742 118.799 115.975 128.137 92.0306 144.13L28.1819 80.279C25.1876 77.4906 21.1742 75.7866 16.7632 75.7866C7.50513 75.7866 0 83.2897 0 92.5498V294.858C0 391.895 78.6632 482.401 175.7 482.401C272.735 482.401 351.4 391.895 351.4 294.858L351.398 172.948Z" fill="#0071BC"/>
<path d="M175.698 118.799C163.379 118.799 151.418 120.312 139.954 123.096V172.428C139.954 192.167 155.959 208.17 175.698 208.17C195.437 208.17 211.44 192.167 211.44 172.428V123.096C199.977 120.312 188.018 118.799 175.698 118.799Z" fill="#055878"/>
<path d="M210.884 291.17H141.336C120.193 291.17 103.052 308.313 103.052 329.456C103.052 350.602 120.193 367.742 141.336 367.742C156.783 367.742 170.056 358.578 176.112 345.408C182.166 358.578 195.44 367.742 210.886 367.742C232.03 367.742 249.172 350.602 249.172 329.456C249.17 308.311 232.028 291.17 210.884 291.17Z" fill="white"/>
<path d="M74.9604 275.063C84.6429 275.063 92.4921 267.214 92.4921 257.532C92.4921 247.849 84.6429 240 74.9604 240C65.2779 240 57.4287 247.849 57.4287 257.532C57.4287 267.214 65.2779 275.063 74.9604 275.063Z" fill="#333E48"/>
<path d="M277.261 275.059C286.942 275.059 294.79 267.211 294.79 257.53C294.79 247.848 286.942 240 277.261 240C267.579 240 259.731 247.848 259.731 257.53C259.731 267.211 267.579 275.059 277.261 275.059Z" fill="#333E48"/>
<path d="M197.81 316.676C186.815 328.076 168.498 328.402 157.104 317.401L144.397 305.131C133.003 294.128 136.637 285.127 152.477 285.127H199.436C215.274 285.127 219.236 294.456 208.242 305.856L197.81 316.676Z" fill="#333E48"/>
<path d="M126.263 335.137L57.0898 351.336" stroke="#333E48" stroke-width="6.11499" stroke-miterlimit="10" stroke-linecap="round" stroke-linejoin="round"/>
<path d="M133.916 350.378L76.855 384.638" stroke="#333E48" stroke-width="6.11499" stroke-miterlimit="10" stroke-linecap="round" stroke-linejoin="round"/>
<path d="M121.923 318.343L52 315.695" stroke="#333E48" stroke-width="6.11499" stroke-miterlimit="10" stroke-linecap="round" stroke-linejoin="round"/>
<path d="M225.957 335.137L295.132 351.336" stroke="#333E48" stroke-width="6.11499" stroke-miterlimit="10" stroke-linecap="round" stroke-linejoin="round"/>
<path d="M218.301 350.378L275.364 384.638" stroke="#333E48" stroke-width="6.11499" stroke-miterlimit="10" stroke-linecap="round" stroke-linejoin="round"/>
<path d="M230.294 318.343L300.219 315.695" stroke="#333E48" stroke-width="6.11499" stroke-miterlimit="10" stroke-linecap="round" stroke-linejoin="round"/>
</g>
<defs>
<clipPath id="clip0_542_90">
<rect width="746" height="746" fill="white" transform="translate(0 0.985962)"/>
</clipPath>
</defs>
</svg>
