<svg width="11" height="20" viewBox="0 0 11 20" fill="none" xmlns="http://www.w3.org/2000/svg">
<path d="M0.292895 18.2929C-0.0976296 18.6834 -0.0976306 19.3166 0.292893 19.7071C0.683417 20.0976 1.31658 20.0976 1.70711 19.7071L0.292895 18.2929ZM10 10L10.7071 10.7071C11.0976 10.3166 11.0976 9.68344 10.7071 9.29291L10 10ZM1.70711 0.292897C1.31658 -0.0976281 0.683419 -0.0976287 0.292894 0.292895C-0.0976305 0.683419 -0.097631 1.31658 0.292893 1.70711L1.70711 0.292897ZM5.5 5.50001L6.20711 4.7929L6.20711 4.7929L5.5 5.50001ZM1 19C1.70711 19.7071 1.70713 19.7071 1.70717 19.707C1.70721 19.707 1.70727 19.7069 1.70736 19.7069C1.70752 19.7067 1.70778 19.7064 1.70811 19.7061C1.70877 19.7054 1.70977 19.7044 1.7111 19.7031C1.71375 19.7005 1.71771 19.6965 1.72295 19.6913C1.73344 19.6808 1.74905 19.6652 1.76957 19.6446C1.8106 19.6036 1.87124 19.543 1.94967 19.4645C2.10652 19.3077 2.33452 19.0797 2.6191 18.7951C3.18826 18.226 3.98376 17.4305 4.88909 16.5251C6.69975 14.7145 8.94975 12.4645 10.7071 10.7071L9.29289 9.29291C7.53553 11.0503 5.28553 13.3003 3.47487 15.1109C2.56955 16.0162 1.77405 16.8117 1.20489 17.3809C0.920306 17.6655 0.692308 17.8935 0.535456 18.0503C0.457029 18.1288 0.396389 18.1894 0.355356 18.2304C0.334839 18.2509 0.319224 18.2666 0.308738 18.277C0.303495 18.2823 0.299534 18.2863 0.296884 18.2889C0.29556 18.2902 0.294562 18.2912 0.293896 18.2919C0.293562 18.2922 0.293314 18.2925 0.293146 18.2926C0.293062 18.2927 0.293 18.2928 0.292958 18.2928C0.292916 18.2929 0.292895 18.2929 1 19ZM10.7071 9.29291L6.20711 4.7929L4.79289 6.20712L9.29289 10.7071L10.7071 9.29291ZM6.20711 4.7929L1.70711 0.292897L0.292893 1.70711L4.79289 6.20712L6.20711 4.7929Z" fill="#777777"/>
</svg>
