<svg width="39" height="35" viewBox="0 0 39 35" fill="none" xmlns="http://www.w3.org/2000/svg">
<path fill-rule="evenodd" clip-rule="evenodd" d="M11.69 23.5753C11.5338 23.6428 10.5845 24.5206 9.37959 25.7117C8.2548 26.8237 6.86639 28.1929 6.29435 28.7542L5.2543 29.7748L4.06115 28.5348C2.72461 27.1456 2.53283 27.0188 1.76707 27.0173C0.463685 27.0147 -0.377895 28.3554 0.169908 29.5616C0.371964 30.0064 4.01597 33.7707 4.44626 33.9789C4.86977 34.184 5.54924 34.1857 5.99582 33.9831C6.44017 33.7814 13.7621 26.5525 14.0381 26.043C14.833 24.5754 13.2428 22.9043 11.69 23.5753ZM18.9611 27.0849C17.3529 27.5806 17.1434 29.6522 18.6208 30.4494L18.9238 30.6129H28.2407H37.5575L37.8699 30.4458C39.1402 29.7663 39.1402 27.8995 37.8699 27.2199L37.5575 27.0528L28.3543 27.0397C23.2924 27.0324 19.0655 27.0527 18.9611 27.0849Z" fill="white"/>
<path fill-rule="evenodd" clip-rule="evenodd" d="M11.69 11.864C11.5338 11.9315 10.5845 12.8093 9.37959 14.0004C8.2548 15.1124 6.86639 16.4816 6.29435 17.0429L5.2543 18.0635L4.06115 16.8235C2.72461 15.4343 2.53283 15.3075 1.76707 15.306C0.463685 15.3034 -0.377895 16.6441 0.169908 17.8503C0.371964 18.2951 4.01597 22.0594 4.44626 22.2676C4.86977 22.4727 5.54924 22.4744 5.99582 22.2718C6.44017 22.0701 13.7621 14.8412 14.0381 14.3317C14.833 12.8641 13.2428 11.193 11.69 11.864ZM18.9611 15.3736C17.3529 15.8693 17.1434 17.9409 18.6208 18.7381L18.9238 18.9016H28.2407H37.5575L37.8699 18.7345C39.1402 18.055 39.1402 16.1882 37.8699 15.5086L37.5575 15.3415L28.3543 15.3284C23.2924 15.3211 19.0655 15.3414 18.9611 15.3736Z" fill="white"/>
<path fill-rule="evenodd" clip-rule="evenodd" d="M11.69 0.15271C11.5338 0.220192 10.5845 1.09804 9.37959 2.28914C8.2548 3.40114 6.86639 4.77026 6.29435 5.33163L5.2543 6.3522L4.06115 5.11222C2.72461 3.72303 2.53283 3.59621 1.76707 3.59466C0.463685 3.59214 -0.377895 4.93276 0.169908 6.13899C0.371964 6.58383 4.01597 10.3481 4.44626 10.5563C4.86977 10.7614 5.54924 10.7631 5.99582 10.5605C6.44017 10.3588 13.7621 3.12986 14.0381 2.62045C14.833 1.15282 13.2428 -0.518324 11.69 0.15271ZM18.9611 3.66234C17.3529 4.15798 17.1434 6.22965 18.6208 7.02682L18.9238 7.19029H28.2407H37.5575L37.8699 7.02323C39.1402 6.34366 39.1402 4.47687 37.8699 3.7973L37.5575 3.63024L28.3543 3.61706C23.2924 3.60979 19.0655 3.63015 18.9611 3.66234Z" fill="white"/>
</svg>
