<svg width="257" height="274" viewBox="0 0 257 274" fill="none" xmlns="http://www.w3.org/2000/svg">
<path d="M0 0C21.9887 27.5085 44.1132 54.8723 60.8084 74.4179C77.6393 93.9634 89.0408 105.401 111.708 110.034C134.376 114.667 168.037 112.495 193.284 124.223C218.53 136.095 235.225 162.011 244.319 189.375C253.549 216.738 255.178 245.405 256.942 274.072H0V0Z" fill="#DEE5F4" fill-opacity="0.3"/>
<path d="M0 68.4818C16.5594 89.1856 32.9831 109.745 45.6063 124.368C58.2294 138.991 66.7806 147.677 83.7472 151.152C100.714 154.627 126.096 152.89 144.963 161.721C163.83 170.553 176.317 190.099 183.239 210.513C190.162 231.072 191.383 252.499 192.741 274.072H0V68.4818Z" fill="#9CB4DD" fill-opacity="0.3"/>
<path d="M0 137.108C10.9944 150.718 21.9887 164.472 30.4042 174.173C38.8196 184.018 44.5204 189.809 55.7862 192.125C67.1878 194.442 84.0187 193.284 96.6419 199.22C109.265 205.156 117.545 218.041 122.16 231.796C126.775 245.405 127.589 259.739 128.403 274.072H0V137.108Z" fill="#5085C7" fill-opacity="0.3"/>
<path d="M0 205.59C5.56505 212.395 10.9944 219.344 15.2021 224.122C19.4098 229.045 22.2602 231.94 27.961 233.099C33.526 234.257 42.0772 233.678 48.3209 236.573C54.5646 239.614 58.7724 246.129 61.0798 252.934C63.3873 259.739 63.7945 266.833 64.2017 274.072H0V205.59Z" fill="#006FBB" fill-opacity="0.3"/>
</svg>
