<svg width="137" height="104" viewBox="0 0 137 104" fill="none" xmlns="http://www.w3.org/2000/svg">
<path d="M95.9497 56.9497C98.6834 54.2161 98.6834 49.7839 95.9497 47.0503L51.402 2.50252C48.6684 -0.231148 44.2362 -0.231148 41.5025 2.50252C38.7689 5.23619 38.7689 9.66835 41.5025 12.402L81.1005 52L41.5025 91.598C38.7689 94.3316 38.7689 98.7638 41.5025 101.497C44.2362 104.231 48.6683 104.231 51.402 101.497L95.9497 56.9497ZM90 59L91 59L91 45L90 45L90 59Z" fill="#006FBB"/>
<path d="M134.95 56.9497C137.683 54.2161 137.683 49.7839 134.95 47.0503L90.402 2.50252C87.6684 -0.231148 83.2362 -0.231148 80.5025 2.50252C77.7689 5.23619 77.7689 9.66835 80.5025 12.402L120.101 52L80.5025 91.598C77.7689 94.3316 77.7689 98.7638 80.5025 101.497C83.2362 104.231 87.6683 104.231 90.402 101.497L134.95 56.9497ZM129 59L130 59L130 45L129 45L129 59Z" fill="#006FBB"/>
<path d="M56.9497 56.9497C59.6834 54.2161 59.6834 49.7839 56.9497 47.0503L12.402 2.50252C9.66835 -0.231148 5.2362 -0.231148 2.50253 2.50252C-0.23114 5.23619 -0.23114 9.66835 2.50253 12.402L42.1005 52L2.50252 91.598C-0.231148 94.3316 -0.231148 98.7638 2.50252 101.497C5.23619 104.231 9.66835 104.231 12.402 101.497L56.9497 56.9497ZM51 59L52 59L52 45L51 45L51 59Z" fill="#006FBB"/>
</svg>
