<svg width="16" height="26" viewBox="0 0 16 26" fill="none" xmlns="http://www.w3.org/2000/svg">
<path d="M15.2501 3.36374C16.0033 2.67333 16.0541 1.50308 15.3637 0.749909C14.6733 -0.00326072 13.5031 -0.0541411 12.7499 0.636265L15.2501 3.36374ZM2 13L0.749909 11.6363C0.367646 11.9867 0.15 12.4814 0.15 13C0.15 13.5186 0.367646 14.0133 0.749909 14.3637L2 13ZM12.7499 25.3637C13.5031 26.0541 14.6733 26.0033 15.3637 25.2501C16.0541 24.4969 16.0033 23.3267 15.2501 22.6363L12.7499 25.3637ZM14 2C12.7499 0.636265 12.7499 0.63629 12.7498 0.636341C12.7498 0.636393 12.7497 0.636469 12.7496 0.636571C12.7495 0.636682 12.7489 0.637174 12.7486 0.637488C12.7476 0.638337 12.7464 0.639486 12.7446 0.64114C12.7411 0.64437 12.7358 0.649229 12.7288 0.655628C12.7148 0.668435 12.694 0.687538 12.6666 0.712605C12.6119 0.762758 12.5311 0.836872 12.4265 0.932727C12.2174 1.12444 11.9134 1.4031 11.5339 1.75092C10.775 2.44657 9.71438 3.41884 8.50727 4.52535C6.09306 6.73838 3.09306 9.48838 0.749909 11.6363L3.25009 14.3637C5.59324 12.2159 8.59324 9.46585 11.0074 7.25282C12.2146 6.14631 13.2752 5.17404 14.0341 4.47839C14.4135 4.13057 14.7175 3.85191 14.9267 3.6602C15.0312 3.56434 15.1121 3.49023 15.1668 3.44008C15.1942 3.41499 15.215 3.39592 15.229 3.3831C15.236 3.37668 15.2412 3.37186 15.2448 3.36861C15.2465 3.36703 15.2479 3.36574 15.2488 3.36496C15.2493 3.36446 15.2494 3.36434 15.2498 3.36404C15.2499 3.36394 15.25 3.36386 15.25 3.36381C15.2501 3.36376 15.2501 3.36374 14 2ZM0.749909 14.3637L12.7499 25.3637L15.2501 22.6363L3.25009 11.6363L0.749909 14.3637Z" fill="white"/>
</svg>
