<svg width="170" height="171" viewBox="0 0 170 171" fill="none" xmlns="http://www.w3.org/2000/svg">
<path d="M0 0.740333C19.4896 -0.391324 38.8535 -1.39725 52.5592 9.03914C66.1391 19.6013 74.0607 41.6057 83.4911 55.8143C93.0473 70.0229 104.112 76.3099 117.944 84.9859C131.901 93.6619 148.75 104.727 157.803 119.439C166.982 134.15 168.491 152.382 170 170.74H0V0.740333Z" fill="#DEE5F4"/>
<path d="M0 43.2403C14.5858 42.3602 29.1716 41.6057 39.3565 49.5273C49.6672 57.3232 55.5769 73.9208 62.6183 84.483C69.7855 95.1708 78.0843 99.9489 88.5207 106.487C98.9571 112.9 111.531 121.199 118.447 132.264C125.237 143.329 126.368 157.035 127.5 170.74H0V43.2403Z" fill="#9CB4DD"/>
<path d="M0 85.7402C9.68195 85.2373 19.4896 84.6086 26.2796 89.8896C33.0695 95.1707 36.9675 106.11 41.7456 113.277C46.5237 120.319 52.0562 123.588 58.9719 127.863C66.0133 132.264 74.3121 137.796 78.9645 145.089C83.4911 152.382 84.2456 161.561 85 170.74H0V85.7402Z" fill="#5085C7"/>
<path d="M0 128.24C4.90385 127.989 9.68195 127.737 13.0769 130.378C16.5976 132.892 18.4837 138.425 20.8728 141.946C23.2618 145.592 26.0281 147.101 29.5488 149.364C32.9438 151.502 37.2189 154.268 39.4823 157.915C41.7456 161.561 42.1228 166.213 42.5 170.74H0V128.24Z" fill="#006FBB"/>
</svg>
