<svg width="431" height="512" viewBox="0 0 431 512" fill="none" xmlns="http://www.w3.org/2000/svg">
<path d="M0 36C0 16.1177 16.1178 0 36 0H395C414.882 0 431 16.1177 431 36V476C431 495.882 414.882 512 395 512H36C16.1177 512 0 495.882 0 476V36Z" fill="#006FBB"/>
<rect x="33" y="119" width="339" height="21" fill="#004676"/>
<rect x="33" y="61" width="170" height="21" fill="#004676"/>
<rect x="33" y="177" width="339" height="21" fill="#004676"/>
<rect x="33" y="293" width="339" height="21" fill="#004676"/>
<rect x="33" y="351" width="339" height="21" fill="#004676"/>
<rect x="33" y="409" width="117" height="21" fill="#004676"/>
<rect x="33" y="235" width="339" height="21" fill="#004676"/>
<path d="M265.691 70.6769L315.7 91.0519L194.959 387.399L144.95 367.024L265.691 70.6769Z" fill="#F0F0F0"/>
<path d="M151.473 429.855C149.598 431.678 146.451 430.396 146.383 427.782L144.833 368.006C144.777 365.843 146.96 364.334 148.964 365.15L193.397 383.253C195.401 384.07 195.908 386.675 194.356 388.183L151.473 429.855Z" fill="#F0F0F0"/>
<path d="M315.009 92.788L265 72.413L273.678 51.113C276.179 44.9755 283.181 42.0272 289.319 44.5278L317.102 55.8473C323.239 58.3479 326.187 65.3505 323.687 71.4881L315.009 92.788Z" fill="#F0F0F0"/>
</svg>
