<svg width="1322" height="299" viewBox="0 0 1322 299" fill="none" xmlns="http://www.w3.org/2000/svg">
<path d="M165.25 22.4515C98.2321 52.3869 62.0503 52.3869 7.82543e-05 22.4515L0 209L1322 209L1322 22.4516C1259.95 -7.48376 1223.77 -7.48376 1156.75 22.4516C1089.73 52.387 1053.55 52.3869 991.5 22.4516C929.45 -7.48379 893.268 -7.48379 826.25 22.4516C759.232 52.3869 723.05 52.3869 661 22.4516C598.95 -7.48382 562.768 -7.48382 495.75 22.4515C428.732 52.3869 392.55 52.3869 330.5 22.4515C268.45 -7.48385 232.268 -7.48385 165.25 22.4515Z" fill="#DEE5F4"/>
<path d="M165.25 67.4518C98.2321 97.3871 62.0503 97.3871 7.82543e-05 67.4517L0 254L1322 254L1322 67.4519C1259.95 37.5165 1223.77 37.5165 1156.75 67.4518C1089.73 97.3872 1053.55 97.3872 991.5 67.4518C929.45 37.5165 893.268 37.5165 826.25 67.4518C759.232 97.3872 723.05 97.3872 661 67.4518C598.95 37.5164 562.768 37.5164 495.75 67.4518C428.732 97.3871 392.55 97.3871 330.5 67.4518C268.45 37.5164 232.268 37.5164 165.25 67.4518Z" fill="#9CB4DD"/>
<path d="M165.25 112.452C98.2321 142.387 62.0503 142.387 7.82543e-05 112.452L0 299L1322 299L1322 112.452C1259.95 82.5166 1223.77 82.5166 1156.75 112.452C1089.73 142.387 1053.55 142.387 991.5 112.452C929.45 82.5166 893.268 82.5166 826.25 112.452C759.232 142.387 723.05 142.387 661 112.452C598.95 82.5165 562.768 82.5165 495.75 112.452C428.732 142.387 392.55 142.387 330.5 112.452C268.45 82.5165 232.268 82.5165 165.25 112.452Z" fill="#006FBB"/>
</svg>
